<?xml version="1.0" encoding="UTF-8"?>
<svg viewBox="0 0 377.91574 369.67596" xmlns="http://www.w3.org/2000/svg" xmlns:xlink="http://www.w3.org/1999/xlink">
<defs>
<linearGradient id="linearGradient4098">
<stop offset="0" stop-color="#ffb142"/>
<stop offset="1" stop-color="#c87600"/>
</linearGradient>
<linearGradient id="linearGradient3211" x1=".44094" x2=".66688" xlink:href="#linearGradient4098"/>
<linearGradient id="linearGradient3327" x2="0" xlink:href="#linearGradient4098" y1=".53309" y2=".83886"/>
</defs>
<title>how</title>
<title>Layer 1</title>
<path d="m194,330.65213c0,12.7157-6.37996,23.0238-14.25,23.0238s-14.25-10.3081-14.25-23.0238 6.37994-23.0238 14.25-23.0238 14.25,10.3081 14.25,23.0238z" fill="url(#linearGradient3327)" stroke="#000" stroke-linecap="round" stroke-linejoin="round" stroke-width="2.8687"/>
<path d="m159.5,330.65213c0,12.7157-6.37996,23.0238-14.25,23.0238s-14.25-10.3081-14.25-23.0238 6.37994-23.0238 14.25-23.0238 14.25,10.3081 14.25,23.0238z" fill="url(#linearGradient3327)" stroke="#000" stroke-linecap="round" stroke-linejoin="round" stroke-width="2.8687"/>
<path d="m176.5,330.65213c0,12.7157-6.37996,23.0238-14.25,23.0238s-14.25-10.3081-14.25-23.0238 6.37994-23.0238 14.25-23.0238 14.25,10.3081 14.25,23.0238z" fill="url(#linearGradient3327)" stroke="#000" stroke-linecap="round" stroke-linejoin="round" stroke-width="2.8687"/>
<path d="m271,330.65213c0,12.7157-6.37994,23.0238-14.25,23.0238s-14.25-10.3081-14.25-23.0238 6.37994-23.0238 14.25-23.0238 14.25,10.3081 14.25,23.0238z" fill="url(#linearGradient3327)" stroke="#000" stroke-linecap="round" stroke-linejoin="round" stroke-width="2.8687"/>
<path d="m236.5,330.65213c0,12.7157-6.37996,23.0238-14.25,23.0238s-14.25-10.3081-14.25-23.0238 6.37994-23.0238 14.25-23.0238 14.25,10.3081 14.25,23.0238z" fill="url(#linearGradient3327)" stroke="#000" stroke-linecap="round" stroke-linejoin="round" stroke-width="2.8687"/>
<path d="m253.5,330.65213c0,12.7157-6.37996,23.0238-14.25,23.0238s-14.25-10.3081-14.25-23.0238 6.37994-23.0238 14.25-23.0238 14.25,10.3081 14.25,23.0238z" fill="url(#linearGradient3327)" stroke="#000" stroke-linecap="round" stroke-linejoin="round" stroke-width="2.8687"/>
<path d="m145.25,307.625c-5.8064,0-10.7803,5.63034-13,13.6875 18.97108,5.07428 39.81416,8.03415 61.71875,8.4375-.29837-12.28482-6.54288-22.125-14.21875-22.125-3.3009,0-6.3333,1.82748-8.75,4.875-2.4167-3.04752-5.4491-4.875-8.75-4.875-3.18578,0-6.12605,1.70483-8.5,4.5625-2.37395-2.85767-5.31422-4.5625-8.5-4.5625zm77,0c-7.6562,0-13.8907,9.79047-14.21875,22.03125 21.88059-.70435 42.61585-3.98355 61.4375-9.34375-2.3472-7.51563-7.1571-12.6875-12.71875-12.6875-3.3009,0-6.33331,1.82748-8.75,4.875-2.4167-3.04752-5.4491-4.875-8.75-4.875-3.18578,0-6.12605,1.70483-8.5,4.5625-2.37395-2.85767-5.31422-4.5625-8.5-4.5625z" fill-opacity=".31372"/>
<path d="m364.65839,154.56415c0,91.43854-74.12561,165.56415-165.56418,165.56415s-165.56416-74.12561-165.56416-165.56415 74.1256-165.56415 165.56416-165.56415 165.56418,74.12558 165.56418,165.56415z" fill="#784421" stroke="#000" stroke-linecap="round" stroke-width="5"/>
<path d="m280.93198,237.34619c-26.49997-4.92361-2.24735,21.63113-6.31073,31.23273-16.06335-7.89841-9.94272,18.25003-17.20663,25.51392-13.76386-.73608-15.91231,13.14325-25.51388,17.2066-11.60158-6.43665-20.1563,6.31073-31.23273,6.31073s-17.63113-12.24738-31.23273-6.31073c-9.60158-4.06335-11.75003-17.44272-25.5139-17.2066-7.2639-7.26389-6.14323-34.91232-17.20662-25.51392-4.06337-9.60159 14.68924-38.15626-6.31074-31.23273 0-11.07642 22.24737-31.63116 6.31074-31.23273 4.06337-9.60158 24.44272-16.75 17.20662-25.5139 14.52776-14.52782 34.59378-23.51737 56.74663-23.51737s42.21889,8.98955 56.74661,23.51737c-10.73607,5.26387 13.14328,15.91232 17.20663,25.5139-17.93662-.89842 6.31073,20.15631 6.31073,31.23273z" fill="#fff" stroke="#000" stroke-linecap="round" stroke-linejoin="round" stroke-width="4.41176"/>
<path d="m345.375,77c1.98062,10.23245 3.03125,20.78543 3.03125,31.59375 0,3.72989-.13178,7.42509-.375,11.09375-3.67258-.18282-7.57831.01904-11.75.625-35.21545,7.49866-20.17331,51.66406-29.34375,97.875-30.34232,34.3287-74.70943,55.96875-124.09375,55.96875-30.37329,0-58.83163-8.20725-83.3125-22.5-23.67921-55.4426 8.0762-115.66463-33.65625-126.0625-46.11047-8.32536-63.97047,34.45625-34.15625,98.5625 16.46098,35.39423 43.7229,52.77976 63.78125,59.53125 28.36337,22.80038 64.39183,36.4375 103.59375,36.4375 45.94954,0 87.55719-18.73944 117.5625-49 17.45352-8.71747 36.86154-24.59497 50.34375-51.15625 25.2124-49.6709 20.38473-87.07842-5.46875-97.4375-3.16986-16.13602-8.66598-31.44189-16.15625-45.53125z" fill-opacity=".31372" fill-rule="evenodd"/>
<path d="m65.73657,117.54498c48.11121,17.30005-14.16344,94.1427 37.81914,161.19177 9.60838,12.39325-57.86797,2.09076-81.72278-66.58502-23.19832-66.78577-1.13237-107.53909 43.90364-94.60675z" fill="#784421" fill-rule="evenodd" stroke="#000" stroke-width="5"/>
<path d="m332.17917,117.54498c-48.11121,17.30005 14.16342,94.1427-37.81915,161.19177-9.60837,12.39325 57.86795,2.09076 81.72281-66.58502 23.1983-66.78577 1.13232-107.53909-43.90366-94.60675z" fill="#784421" fill-rule="evenodd" stroke="#000" stroke-width="5"/>
<path d="m314.50397,108.49753c13.38867-4.60901 27.22104,7.58386 29.86517,14.17993-13.5123-3.45227-19.71964-4.42578-23.21838-1.38071 1.50674,3.37143 17.40823,6.74191 22.33734,28.87116-12.42877-8.61664-22.30356-18.57559-26.27243-14.48315 2.88159,5.03388 6.19952,14.49744 3.96359,23.8808-7.14151-9.42444-14.43875-19.37848-21.14154-19.64783" fill="#784421" fill-rule="evenodd" stroke="#000" stroke-linecap="round" stroke-linejoin="round" stroke-width="5"/>
<path d="m153.14325,26.76401c-31.23447,0-56.60335,29.33139-56.60335,65.47171s25.36888,65.47168 56.60335,65.47168c18.35565,0 34.64438-10.14087 44.98477-25.82944 10.33966,15.69992 26.66388,25.82944 45.02731,25.82944 31.23447,0 56.6033-29.33139 56.60333-65.47168s-25.36887-65.47171-56.60333-65.47171c-18.3613,0-34.68747,10.13263-45.02731,25.82947-10.34058-15.68518-26.63144-25.82947-44.98477-25.82947z" fill="#fff" stroke="#000" stroke-linecap="round" stroke-width="5"/>
<path d="m199.84271,137.67297c-9.28799,0-19.38364,10.32721-18.9798,16.84967s16.55685,33.6994 20.19128,33.6994 17.76831-26.63336 17.3645-34.24292-12.51862-16.84973-18.57599-16.30615z" fill-opacity=".31372" fill-rule="evenodd"/>
<path d="m197.72141,127.06409c-9.28799,0-19.38364,9.30621-18.97983,15.18378s16.55689,30.36762 20.19128,30.36762 17.76834-24.00018 17.3645-30.85736-12.51859-15.18384-18.57596-14.69403z" fill="url(#linearGradient3211)" fill-rule="evenodd" stroke="#000" stroke-width="5"/>
<path d="m194.55223,96.66483c.00395,9.05318-7.33394,16.3943-16.38712,16.3943s-16.39107-7.34111-16.38712-16.3943 7.33398-16.3943 16.38712-16.3943 16.39107,7.34116 16.38712,16.3943z" stroke="#000" stroke-linecap="round" stroke-width="3.16929"/>
<path d="m83.14346,108.49753c-13.38869-4.60901-27.22104,7.58386-29.86519,14.17993 13.51228-3.45227 19.71964-4.42578 23.21838-1.38071-1.50674,3.37143-17.40825,6.74191-22.33733,28.87116 12.42877-8.61664 22.30353-18.57559 26.2724-14.48315-2.88158,5.03388-6.19951,14.49744-3.96356,23.8808 7.14148-9.42444 14.43872-19.37848 21.14151-19.64783" fill="#784421" fill-rule="evenodd" stroke="#000" stroke-linecap="round" stroke-linejoin="round" stroke-width="5"/>
<path d="m211.97055,37.78272c13.27591-32.15973 35.66559-36.51321 35.66559-36.51321s-12.45331,16.77533-1.17398,12.10877c17.4653-7.22586 72.99674,15.4183 72.99674,15.4183s-73.57443-17.12601-107.48834,8.98615z" fill="#fff" fill-rule="evenodd" stroke="#000" stroke-linejoin="round" stroke-width="5"/>
<path d="m181.52942,34.78274c-13.27591-32.15976-35.66559-36.51324-35.66559-36.51324s12.45331,16.77533 1.17398,12.10877c-17.4653-7.22586-72.99675,15.4183-72.99675,15.4183s73.57445-17.12601 107.48836,8.98618z" fill="#fff" fill-rule="evenodd" stroke="#000" stroke-linejoin="round" stroke-width="5"/>
<path d="m236.05223,96.66483c.00395,9.05318-7.33394,16.3943-16.38712,16.3943s-16.39107-7.34111-16.38712-16.3943 7.33398-16.3943 16.38712-16.3943 16.39107,7.34116 16.38712,16.3943z" stroke="#000" stroke-linecap="round" stroke-width="3.16929"/>
<path d="m176.5,90.92594c0,2.3472-1.9028,4.25-4.25,4.25s-4.25-1.9028-4.25-4.25 1.90279-4.25 4.25-4.25 4.25,1.90279 4.25,4.25z" fill="#fff"/>
<path d="m218,90.92594c0,2.3472-1.9028,4.25-4.25,4.25s-4.25-1.9028-4.25-4.25 1.90279-4.25 4.25-4.25 4.25,1.90279 4.25,4.25z" fill="#fff"/>
<path d="m347.9375,115.15625c-.4126-.0006-.83164.02054-1.25.03125 16.21207,13.06455 23.07333,43.29712 14.78125,85.34375-11.02307,55.89475-53.57657,80.008-67.71875,81.28125 4.5921,6.52643 60.97089-8.12576 82.34375-69.65625 20.29852-58.43755 5.92075-96.95013-28.15625-97z" fill-opacity=".31372" fill-rule="evenodd"/>
<path d="m14.0625,147.34375c-3.45178,16.50581-1.29852,38.67265 7.78125,64.8125 23.85482,68.67581 91.32713,78.987 81.71875,66.59375-4.10892-5.29983-7.52039-10.67453-10.3125-16.0625-18.9515-4.54141-54.04781-24.37622-69.90625-70.03125-5.87955-16.92667-8.8539-32.18045-9.28125-45.3125zm71.28125,6.34375c-.88285,8.53607-1.85622,17.61189-2.28125,27.125 .99329-9.79063 2.07939-18.94113 2.28125-27.125z" fill-opacity=".31372" fill-rule="evenodd"/>
</svg>
